# xmcd CD database file
#
# Track frame offsets:
#	183
#	34620
#	57953
#	115868
#	161920
#	192433
#	268515
#	308168
#
# Disc length: 4552 seconds
#
# Revision: 0
# Processed by: cddbd v1.5.1PL0 Copyright (c) Steve Scherf et al.
# Submitted via: CDex 1.51
#
DISCID=6a11c608
DTITLE=Jon Lloyd Quartet - Head!
DYEAR=1993
DGENRE=Jazz
TTITLE0=Audax drop
TTITLE1=Fragment 92&93
TTITLE2=Slingback
TTITLE3=V-points
TTITLE4=Parabola
TTITLE5=Jump
TTITLE6=Boots
TTITLE7=Audax drop
EXTD=YEAR: 1993
EXTT0=
EXTT1=
EXTT2=
EXTT3=
EXTT4=
EXTT5=
EXTT6=
EXTT7=
PLAYORDER=
